<?xml version="1.0" encoding="UTF-8" standalone="no"?>
<!-- Created with Inkscape (http://www.inkscape.org/) -->

<svg
   xmlns:dc="http://purl.org/dc/elements/1.1/"
   xmlns:cc="http://creativecommons.org/ns#"
   xmlns:rdf="http://www.w3.org/1999/02/22-rdf-syntax-ns#"
   xmlns:svg="http://www.w3.org/2000/svg"
   xmlns="http://www.w3.org/2000/svg"
   xmlns:xlink="http://www.w3.org/1999/xlink"
   xmlns:sodipodi="http://sodipodi.sourceforge.net/DTD/sodipodi-0.dtd"
   xmlns:inkscape="http://www.inkscape.org/namespaces/inkscape"
   width="24in"
   height="12in"
   viewBox="0 0 2160 1080"
   id="svg2"
   version="1.1"
   inkscape:version="0.91 r13725"
   sodipodi:docname="Mamnoon lamp_4sides.svg">
  <sodipodi:namedview
     id="base"
     pagecolor="#ffffff"
     bordercolor="#666666"
     borderopacity="1.0"
     inkscape:pageopacity="0.0"
     inkscape:pageshadow="2"
     inkscape:zoom="0.99999999"
     inkscape:cx="798.71556"
     inkscape:cy="539.39012"
     inkscape:document-units="in"
     inkscape:current-layer="layer1"
     showgrid="true"
     units="in"
     showguides="false"
     inkscape:window-width="2560"
     inkscape:window-height="1337"
     inkscape:window-x="0"
     inkscape:window-y="0"
     inkscape:window-maximized="1"
     inkscape:snap-bbox="true"
     inkscape:snap-object-midpoints="true"
     inkscape:snap-page="false"
     inkscape:snap-global="true"
     inkscape:snap-grids="true">
    <inkscape:grid
       type="xygrid"
       id="grid3336" />
  </sodipodi:namedview>
  <defs
     id="defs4" />
  <metadata
     id="metadata7">
    <rdf:RDF>
      <cc:Work
         rdf:about="">
        <dc:format>image/svg+xml</dc:format>
        <dc:type
           rdf:resource="http://purl.org/dc/dcmitype/StillImage" />
        <dc:title></dc:title>
      </cc:Work>
    </rdf:RDF>
  </metadata>
  <g
     inkscape:label="Layer 1"
     inkscape:groupmode="layer"
     id="layer1"
     transform="translate(0,27.637855)">
    <path
       style="fill:none;fill-rule:evenodd;stroke:#000000;stroke-width:0.9;stroke-linecap:butt;stroke-linejoin:miter;stroke-opacity:1;stroke-miterlimit:4;stroke-dasharray:none"
       d="m 0,735.06715 2160,0"
       id="path3338"
       inkscape:connector-curvature="0"
       sodipodi:nodetypes="cc" />
    <path
       style="fill:none;fill-rule:evenodd;stroke:#000000;stroke-width:0.30831411;stroke-linecap:butt;stroke-linejoin:miter;stroke-opacity:1"
       d="m 56.25,62.145933 -9.849628,-9.73367 -13.837449,0 0,-13.858521 -9.843981,-9.934896 9.843981,-9.703052 0,-13.9358595 13.837449,0 9.849628,-9.888173 9.945816,9.888173 13.741261,0 0,13.9358595 9.84398,9.703052 -9.84398,9.934896 0,13.858521 -13.741261,0 z"
       id="path3340"
       inkscape:connector-curvature="0"
       sodipodi:nodetypes="ccccccccccccccccc"
       inkscape:tile-cx="48.07969"
       inkscape:tile-cy="46.835976"
       inkscape:tile-w="71.41923"
       inkscape:tile-h="71.089082"
       inkscape:tile-x0="12.370075"
       inkscape:tile-y0="11.290547" />
    <use
       x="0"
       y="0"
       inkscape:tiled-clone-of="#path3340"
       xlink:href="#path3340"
       id="use5239"
       transform="translate(42.851541,63.980168)"
       width="100%"
       height="100%"
       inkscape:tile-cx="99.10154"
       inkscape:tile-cy="120.23687"
       inkscape:tile-w="67.4987"
       inkscape:tile-h="67.48829"
       inkscape:tile-x0="65.35219"
       inkscape:tile-y0="86.491878" />
    <use
       x="0"
       y="0"
       inkscape:tiled-clone-of="#path3340"
       xlink:href="#path3340"
       transform="translate(0,127.96035)"
       id="use5241"
       width="100%"
       height="100%" />
    <use
       x="0"
       y="0"
       inkscape:tiled-clone-of="#path3340"
       xlink:href="#path3340"
       transform="translate(0,255.9207)"
       id="use5243"
       width="100%"
       height="100%" />
    <use
       x="0"
       y="0"
       inkscape:tiled-clone-of="#path3340"
       xlink:href="#path3340"
       transform="translate(0,383.88104)"
       id="use5245"
       width="100%"
       height="100%" />
    <use
       x="0"
       y="0"
       inkscape:tiled-clone-of="#path3340"
       xlink:href="#path3340"
       transform="translate(0,511.84139)"
       id="use5247"
       width="100%"
       height="100%" />
    <use
       x="0"
       y="0"
       inkscape:tiled-clone-of="#path3340"
       xlink:href="#path3340"
       transform="translate(0,639.80174)"
       id="use5249"
       width="100%"
       height="100%" />
    <use
       x="0"
       y="0"
       inkscape:tiled-clone-of="#path3340"
       xlink:href="#path3340"
       transform="translate(85.703076,0)"
       id="use5251"
       width="100%"
       height="100%" />
    <use
       x="0"
       y="0"
       inkscape:tiled-clone-of="#path3340"
       xlink:href="#path3340"
       transform="translate(85.703076,127.96035)"
       id="use5253"
       width="100%"
       height="100%" />
    <use
       x="0"
       y="0"
       inkscape:tiled-clone-of="#path3340"
       xlink:href="#path3340"
       transform="translate(85.703076,255.9207)"
       id="use5255"
       width="100%"
       height="100%" />
    <use
       x="0"
       y="0"
       inkscape:tiled-clone-of="#path3340"
       xlink:href="#path3340"
       transform="translate(85.703076,383.88104)"
       id="use5257"
       width="100%"
       height="100%" />
    <use
       x="0"
       y="0"
       inkscape:tiled-clone-of="#path3340"
       xlink:href="#path3340"
       transform="translate(85.703076,511.84139)"
       id="use5259"
       width="100%"
       height="100%" />
    <use
       x="0"
       y="0"
       inkscape:tiled-clone-of="#path3340"
       xlink:href="#path3340"
       transform="translate(85.703076,639.80174)"
       id="use5261"
       width="100%"
       height="100%" />
    <use
       x="0"
       y="0"
       inkscape:tiled-clone-of="#path3340"
       xlink:href="#path3340"
       transform="translate(171.40615,0)"
       id="use5263"
       width="100%"
       height="100%" />
    <use
       x="0"
       y="0"
       inkscape:tiled-clone-of="#path3340"
       xlink:href="#path3340"
       transform="translate(171.40615,127.96035)"
       id="use5265"
       width="100%"
       height="100%" />
    <use
       x="0"
       y="0"
       inkscape:tiled-clone-of="#path3340"
       xlink:href="#path3340"
       transform="translate(171.40615,255.9207)"
       id="use5267"
       width="100%"
       height="100%" />
    <use
       x="0"
       y="0"
       inkscape:tiled-clone-of="#path3340"
       xlink:href="#path3340"
       transform="translate(171.40615,383.88104)"
       id="use5269"
       width="100%"
       height="100%" />
    <use
       x="0"
       y="0"
       inkscape:tiled-clone-of="#path3340"
       xlink:href="#path3340"
       transform="translate(171.40615,511.84139)"
       id="use5271"
       width="100%"
       height="100%" />
    <use
       x="0"
       y="0"
       inkscape:tiled-clone-of="#path3340"
       xlink:href="#path3340"
       transform="translate(171.40615,639.80174)"
       id="use5273"
       width="100%"
       height="100%" />
    <use
       x="0"
       y="0"
       inkscape:tiled-clone-of="#path3340"
       xlink:href="#path3340"
       transform="translate(257.10923,0)"
       id="use5275"
       width="100%"
       height="100%" />
    <use
       x="0"
       y="0"
       inkscape:tiled-clone-of="#path3340"
       xlink:href="#path3340"
       transform="translate(257.10923,127.96035)"
       id="use5277"
       width="100%"
       height="100%" />
    <use
       x="0"
       y="0"
       inkscape:tiled-clone-of="#path3340"
       xlink:href="#path3340"
       transform="translate(257.10923,255.9207)"
       id="use5279"
       width="100%"
       height="100%" />
    <use
       x="0"
       y="0"
       inkscape:tiled-clone-of="#path3340"
       xlink:href="#path3340"
       transform="translate(257.10923,383.88104)"
       id="use5281"
       width="100%"
       height="100%" />
    <use
       x="0"
       y="0"
       inkscape:tiled-clone-of="#path3340"
       xlink:href="#path3340"
       transform="translate(257.10923,511.84139)"
       id="use5283"
       width="100%"
       height="100%" />
    <use
       x="0"
       y="0"
       inkscape:tiled-clone-of="#path3340"
       xlink:href="#path3340"
       transform="translate(257.10923,639.80174)"
       id="use5285"
       width="100%"
       height="100%" />
    <use
       x="0"
       y="0"
       inkscape:tiled-clone-of="#path3340"
       xlink:href="#path3340"
       transform="translate(342.8123,0)"
       id="use5287"
       width="100%"
       height="100%" />
    <use
       x="0"
       y="0"
       inkscape:tiled-clone-of="#path3340"
       xlink:href="#path3340"
       transform="translate(342.8123,127.96035)"
       id="use5289"
       width="100%"
       height="100%" />
    <use
       x="0"
       y="0"
       inkscape:tiled-clone-of="#path3340"
       xlink:href="#path3340"
       transform="translate(342.8123,255.9207)"
       id="use5291"
       width="100%"
       height="100%" />
    <use
       x="0"
       y="0"
       inkscape:tiled-clone-of="#path3340"
       xlink:href="#path3340"
       transform="translate(342.8123,383.88104)"
       id="use5293"
       width="100%"
       height="100%" />
    <use
       x="0"
       y="0"
       inkscape:tiled-clone-of="#path3340"
       xlink:href="#path3340"
       transform="translate(342.8123,511.84139)"
       id="use5295"
       width="100%"
       height="100%" />
    <use
       x="0"
       y="0"
       inkscape:tiled-clone-of="#path3340"
       xlink:href="#path3340"
       transform="translate(342.8123,639.80174)"
       id="use5297"
       width="100%"
       height="100%" />
    <use
       x="0"
       y="0"
       inkscape:tiled-clone-of="#path3340"
       xlink:href="#path3340"
       transform="translate(428.51538,0)"
       id="use5299"
       width="100%"
       height="100%" />
    <use
       x="0"
       y="0"
       inkscape:tiled-clone-of="#path3340"
       xlink:href="#path3340"
       transform="translate(428.51538,127.96035)"
       id="use5301"
       width="100%"
       height="100%" />
    <use
       x="0"
       y="0"
       inkscape:tiled-clone-of="#path3340"
       xlink:href="#path3340"
       transform="translate(428.51538,255.9207)"
       id="use5303"
       width="100%"
       height="100%" />
    <use
       x="0"
       y="0"
       inkscape:tiled-clone-of="#path3340"
       xlink:href="#path3340"
       transform="translate(428.51538,383.88104)"
       id="use5305"
       width="100%"
       height="100%" />
    <use
       x="0"
       y="0"
       inkscape:tiled-clone-of="#path3340"
       xlink:href="#path3340"
       transform="translate(428.51538,511.84139)"
       id="use5307"
       width="100%"
       height="100%" />
    <use
       x="0"
       y="0"
       inkscape:tiled-clone-of="#path3340"
       xlink:href="#path3340"
       transform="translate(428.51538,639.80174)"
       id="use5309"
       width="100%"
       height="100%" />
    <use
       x="0"
       y="0"
       inkscape:tiled-clone-of="#use5239"
       xlink:href="#use5239"
       transform="translate(0,128.22775)"
       id="use5863"
       width="100%"
       height="100%" />
    <use
       x="0"
       y="0"
       inkscape:tiled-clone-of="#use5239"
       xlink:href="#use5239"
       transform="translate(0,256.4555)"
       id="use5865"
       width="100%"
       height="100%" />
    <use
       x="0"
       y="0"
       inkscape:tiled-clone-of="#use5239"
       xlink:href="#use5239"
       transform="translate(0,384.68326)"
       id="use5867"
       width="100%"
       height="100%" />
    <use
       x="0"
       y="0"
       inkscape:tiled-clone-of="#use5239"
       xlink:href="#use5239"
       transform="translate(0,512.91101)"
       id="use5869"
       width="100%"
       height="100%" />
    <use
       x="0"
       y="0"
       inkscape:tiled-clone-of="#use5239"
       xlink:href="#use5239"
       transform="translate(85.7031,0)"
       id="use5871"
       width="100%"
       height="100%" />
    <use
       x="0"
       y="0"
       inkscape:tiled-clone-of="#use5239"
       xlink:href="#use5239"
       transform="translate(85.7031,128.22775)"
       id="use5873"
       width="100%"
       height="100%" />
    <use
       x="0"
       y="0"
       inkscape:tiled-clone-of="#use5239"
       xlink:href="#use5239"
       transform="translate(85.7031,256.4555)"
       id="use5875"
       width="100%"
       height="100%" />
    <use
       x="0"
       y="0"
       inkscape:tiled-clone-of="#use5239"
       xlink:href="#use5239"
       transform="translate(85.7031,384.68326)"
       id="use5877"
       width="100%"
       height="100%" />
    <use
       x="0"
       y="0"
       inkscape:tiled-clone-of="#use5239"
       xlink:href="#use5239"
       transform="translate(85.7031,512.91101)"
       id="use5879"
       width="100%"
       height="100%" />
    <use
       x="0"
       y="0"
       inkscape:tiled-clone-of="#use5239"
       xlink:href="#use5239"
       transform="translate(171.4062,0)"
       id="use5881"
       width="100%"
       height="100%" />
    <use
       x="0"
       y="0"
       inkscape:tiled-clone-of="#use5239"
       xlink:href="#use5239"
       transform="translate(171.4062,128.22775)"
       id="use5883"
       width="100%"
       height="100%" />
    <use
       x="0"
       y="0"
       inkscape:tiled-clone-of="#use5239"
       xlink:href="#use5239"
       transform="translate(171.4062,256.4555)"
       id="use5885"
       width="100%"
       height="100%" />
    <use
       x="0"
       y="0"
       inkscape:tiled-clone-of="#use5239"
       xlink:href="#use5239"
       transform="translate(171.4062,384.68326)"
       id="use5887"
       width="100%"
       height="100%" />
    <use
       x="0"
       y="0"
       inkscape:tiled-clone-of="#use5239"
       xlink:href="#use5239"
       transform="translate(171.4062,512.91101)"
       id="use5889"
       width="100%"
       height="100%" />
    <use
       x="0"
       y="0"
       inkscape:tiled-clone-of="#use5239"
       xlink:href="#use5239"
       transform="translate(257.1093,0)"
       id="use5891"
       width="100%"
       height="100%" />
    <use
       x="0"
       y="0"
       inkscape:tiled-clone-of="#use5239"
       xlink:href="#use5239"
       transform="translate(257.1093,128.22775)"
       id="use5893"
       width="100%"
       height="100%" />
    <use
       x="0"
       y="0"
       inkscape:tiled-clone-of="#use5239"
       xlink:href="#use5239"
       transform="translate(257.1093,256.4555)"
       id="use5895"
       width="100%"
       height="100%" />
    <use
       x="0"
       y="0"
       inkscape:tiled-clone-of="#use5239"
       xlink:href="#use5239"
       transform="translate(257.1093,384.68326)"
       id="use5897"
       width="100%"
       height="100%" />
    <use
       x="0"
       y="0"
       inkscape:tiled-clone-of="#use5239"
       xlink:href="#use5239"
       transform="translate(257.1093,512.91101)"
       id="use5899"
       width="100%"
       height="100%" />
    <use
       x="0"
       y="0"
       inkscape:tiled-clone-of="#use5239"
       xlink:href="#use5239"
       transform="translate(342.81228,0)"
       id="use5901"
       width="100%"
       height="100%" />
    <use
       x="0"
       y="0"
       inkscape:tiled-clone-of="#use5239"
       xlink:href="#use5239"
       transform="translate(342.8124,128.22775)"
       id="use5903"
       width="100%"
       height="100%" />
    <use
       x="0"
       y="0"
       inkscape:tiled-clone-of="#use5239"
       xlink:href="#use5239"
       transform="translate(342.8124,256.4555)"
       id="use5905"
       width="100%"
       height="100%" />
    <use
       x="0"
       y="0"
       inkscape:tiled-clone-of="#use5239"
       xlink:href="#use5239"
       transform="translate(342.8124,384.68326)"
       id="use5907"
       width="100%"
       height="100%" />
    <use
       x="0"
       y="0"
       inkscape:tiled-clone-of="#use5239"
       xlink:href="#use5239"
       transform="translate(342.8124,512.91101)"
       id="use5909"
       width="100%"
       height="100%" />
    <path
       style="fill:none;fill-rule:evenodd;stroke:#000000;stroke-width:1px;stroke-linecap:butt;stroke-linejoin:miter;stroke-opacity:1"
       d="m 540.5,-27.637855 0,1079.999955"
       id="path6749"
       inkscape:connector-curvature="0" />
    <path
       style="fill:none;fill-rule:evenodd;stroke:#000000;stroke-width:1px;stroke-linecap:butt;stroke-linejoin:miter;stroke-opacity:1"
       d="m 1080.5,-27.637855 0,1079.999955"
       id="path6793"
       inkscape:connector-curvature="0" />
    <path
       style="fill:none;fill-rule:evenodd;stroke:#000000;stroke-width:1px;stroke-linecap:butt;stroke-linejoin:miter;stroke-opacity:1"
       d="m 1620.5,-27.637855 0,1079.999955"
       id="path6795"
       inkscape:connector-curvature="0" />
    <use
       x="0"
       y="0"
       xlink:href="#path3340"
       id="use7411"
       transform="translate(539.99935,0.00825955)"
       width="100%"
       height="100%" />
    <use
       x="0"
       y="0"
       xlink:href="#use5239"
       id="use7413"
       transform="translate(539.99935,0.00825955)"
       width="100%"
       height="100%" />
    <use
       x="0"
       y="0"
       xlink:href="#use5241"
       id="use7415"
       transform="translate(539.99935,0.00825955)"
       width="100%"
       height="100%" />
    <use
       x="0"
       y="0"
       xlink:href="#use5243"
       id="use7417"
       transform="translate(539.99935,0.00825955)"
       width="100%"
       height="100%" />
    <use
       x="0"
       y="0"
       xlink:href="#use5245"
       id="use7419"
       transform="translate(539.99935,0.00825955)"
       width="100%"
       height="100%" />
    <use
       x="0"
       y="0"
       xlink:href="#use5247"
       id="use7421"
       transform="translate(539.99935,0.00825955)"
       width="100%"
       height="100%" />
    <use
       x="0"
       y="0"
       xlink:href="#use5249"
       id="use7423"
       transform="translate(539.99935,0.00825955)"
       width="100%"
       height="100%" />
    <use
       x="0"
       y="0"
       xlink:href="#use5251"
       id="use7425"
       transform="translate(539.99935,0.00825955)"
       width="100%"
       height="100%" />
    <use
       x="0"
       y="0"
       xlink:href="#use5253"
       id="use7427"
       transform="translate(539.99935,0.00825955)"
       width="100%"
       height="100%" />
    <use
       x="0"
       y="0"
       xlink:href="#use5255"
       id="use7429"
       transform="translate(539.99935,0.00825955)"
       width="100%"
       height="100%" />
    <use
       x="0"
       y="0"
       xlink:href="#use5257"
       id="use7431"
       transform="translate(539.99935,0.00825955)"
       width="100%"
       height="100%" />
    <use
       x="0"
       y="0"
       xlink:href="#use5259"
       id="use7433"
       transform="translate(539.99935,0.00825955)"
       width="100%"
       height="100%" />
    <use
       x="0"
       y="0"
       xlink:href="#use5261"
       id="use7435"
       transform="translate(539.99935,0.00825955)"
       width="100%"
       height="100%" />
    <use
       x="0"
       y="0"
       xlink:href="#use5263"
       id="use7437"
       transform="translate(539.99935,0.00825955)"
       width="100%"
       height="100%" />
    <use
       x="0"
       y="0"
       xlink:href="#use5265"
       id="use7439"
       transform="translate(539.99935,0.00825955)"
       width="100%"
       height="100%" />
    <use
       x="0"
       y="0"
       xlink:href="#use5267"
       id="use7441"
       transform="translate(539.99935,0.00825955)"
       width="100%"
       height="100%" />
    <use
       x="0"
       y="0"
       xlink:href="#use5269"
       id="use7443"
       transform="translate(539.99935,0.00825955)"
       width="100%"
       height="100%" />
    <use
       x="0"
       y="0"
       xlink:href="#use5271"
       id="use7445"
       transform="translate(539.99935,0.00825955)"
       width="100%"
       height="100%" />
    <use
       x="0"
       y="0"
       xlink:href="#use5273"
       id="use7447"
       transform="translate(539.99935,0.00825955)"
       width="100%"
       height="100%" />
    <use
       x="0"
       y="0"
       xlink:href="#use5275"
       id="use7449"
       transform="translate(539.99935,0.00825955)"
       width="100%"
       height="100%" />
    <use
       x="0"
       y="0"
       xlink:href="#use5277"
       id="use7451"
       transform="translate(539.99935,0.00825955)"
       width="100%"
       height="100%" />
    <use
       x="0"
       y="0"
       xlink:href="#use5279"
       id="use7453"
       transform="translate(539.99935,0.00825955)"
       width="100%"
       height="100%" />
    <use
       x="0"
       y="0"
       xlink:href="#use5281"
       id="use7455"
       transform="translate(539.99935,0.00825955)"
       width="100%"
       height="100%" />
    <use
       x="0"
       y="0"
       xlink:href="#use5283"
       id="use7457"
       transform="translate(539.99935,0.00825955)"
       width="100%"
       height="100%" />
    <use
       x="0"
       y="0"
       xlink:href="#use5285"
       id="use7459"
       transform="translate(539.99935,0.00825955)"
       width="100%"
       height="100%" />
    <use
       x="0"
       y="0"
       xlink:href="#use5287"
       id="use7461"
       transform="translate(539.99935,0.00825955)"
       width="100%"
       height="100%" />
    <use
       x="0"
       y="0"
       xlink:href="#use5289"
       id="use7463"
       transform="translate(539.99935,0.00825955)"
       width="100%"
       height="100%" />
    <use
       x="0"
       y="0"
       xlink:href="#use5291"
       id="use7465"
       transform="translate(539.99935,0.00825955)"
       width="100%"
       height="100%" />
    <use
       x="0"
       y="0"
       xlink:href="#use5293"
       id="use7467"
       transform="translate(539.99935,0.00825955)"
       width="100%"
       height="100%" />
    <use
       x="0"
       y="0"
       xlink:href="#use5295"
       id="use7469"
       transform="translate(539.99935,0.00825955)"
       width="100%"
       height="100%" />
    <use
       x="0"
       y="0"
       xlink:href="#use5297"
       id="use7471"
       transform="translate(539.99935,0.00825955)"
       width="100%"
       height="100%" />
    <use
       x="0"
       y="0"
       xlink:href="#use5299"
       id="use7473"
       transform="translate(539.99935,0.00825955)"
       width="100%"
       height="100%" />
    <use
       x="0"
       y="0"
       xlink:href="#use5301"
       id="use7475"
       transform="translate(539.99935,0.00825955)"
       width="100%"
       height="100%" />
    <use
       x="0"
       y="0"
       xlink:href="#use5303"
       id="use7477"
       transform="translate(539.99935,0.00825955)"
       width="100%"
       height="100%" />
    <use
       x="0"
       y="0"
       xlink:href="#use5305"
       id="use7479"
       transform="translate(539.99935,0.00825955)"
       width="100%"
       height="100%" />
    <use
       x="0"
       y="0"
       xlink:href="#use5307"
       id="use7481"
       transform="translate(539.99935,0.00825955)"
       width="100%"
       height="100%" />
    <use
       x="0"
       y="0"
       xlink:href="#use5309"
       id="use7483"
       transform="translate(539.99935,0.00825955)"
       width="100%"
       height="100%" />
    <use
       x="0"
       y="0"
       xlink:href="#use5863"
       id="use7485"
       transform="translate(539.99935,0.00825955)"
       width="100%"
       height="100%" />
    <use
       x="0"
       y="0"
       xlink:href="#use5865"
       id="use7487"
       transform="translate(539.99935,0.00825955)"
       width="100%"
       height="100%" />
    <use
       x="0"
       y="0"
       xlink:href="#use5867"
       id="use7489"
       transform="translate(539.99935,0.00825955)"
       width="100%"
       height="100%" />
    <use
       x="0"
       y="0"
       xlink:href="#use5869"
       id="use7491"
       transform="translate(539.99935,0.00825955)"
       width="100%"
       height="100%" />
    <use
       x="0"
       y="0"
       xlink:href="#use5871"
       id="use7493"
       transform="translate(539.99935,0.00825955)"
       width="100%"
       height="100%" />
    <use
       x="0"
       y="0"
       xlink:href="#use5873"
       id="use7495"
       transform="translate(539.99935,0.00825955)"
       width="100%"
       height="100%" />
    <use
       x="0"
       y="0"
       xlink:href="#use5875"
       id="use7497"
       transform="translate(539.99935,0.00825955)"
       width="100%"
       height="100%" />
    <use
       x="0"
       y="0"
       xlink:href="#use5877"
       id="use7499"
       transform="translate(539.99935,0.00825955)"
       width="100%"
       height="100%" />
    <use
       x="0"
       y="0"
       xlink:href="#use5879"
       id="use7501"
       transform="translate(539.99935,0.00825955)"
       width="100%"
       height="100%" />
    <use
       x="0"
       y="0"
       xlink:href="#use5881"
       id="use7503"
       transform="translate(539.99935,0.00825955)"
       width="100%"
       height="100%" />
    <use
       x="0"
       y="0"
       xlink:href="#use5883"
       id="use7505"
       transform="translate(539.99935,0.00825955)"
       width="100%"
       height="100%" />
    <use
       x="0"
       y="0"
       xlink:href="#use5885"
       id="use7507"
       transform="translate(539.99935,0.00825955)"
       width="100%"
       height="100%" />
    <use
       x="0"
       y="0"
       xlink:href="#use5887"
       id="use7509"
       transform="translate(539.99935,0.00825955)"
       width="100%"
       height="100%" />
    <use
       x="0"
       y="0"
       xlink:href="#use5889"
       id="use7511"
       transform="translate(539.99935,0.00825955)"
       width="100%"
       height="100%" />
    <use
       x="0"
       y="0"
       xlink:href="#use5891"
       id="use7513"
       transform="translate(539.99935,0.00825955)"
       width="100%"
       height="100%" />
    <use
       x="0"
       y="0"
       xlink:href="#use5893"
       id="use7515"
       transform="translate(539.99935,0.00825955)"
       width="100%"
       height="100%" />
    <use
       x="0"
       y="0"
       xlink:href="#use5895"
       id="use7517"
       transform="translate(539.99935,0.00825955)"
       width="100%"
       height="100%" />
    <use
       x="0"
       y="0"
       xlink:href="#use5897"
       id="use7519"
       transform="translate(539.99935,0.00825955)"
       width="100%"
       height="100%" />
    <use
       x="0"
       y="0"
       xlink:href="#use5899"
       id="use7521"
       transform="translate(539.99935,0.00825955)"
       width="100%"
       height="100%" />
    <use
       x="0"
       y="0"
       xlink:href="#use5901"
       id="use7523"
       transform="translate(539.99935,0.00825955)"
       width="100%"
       height="100%" />
    <use
       x="0"
       y="0"
       xlink:href="#use5903"
       id="use7525"
       transform="translate(539.99935,0.00825955)"
       width="100%"
       height="100%" />
    <use
       x="0"
       y="0"
       xlink:href="#use5905"
       id="use7527"
       transform="translate(539.99935,0.00825955)"
       width="100%"
       height="100%" />
    <use
       x="0"
       y="0"
       xlink:href="#use5907"
       id="use7529"
       transform="translate(539.99935,0.00825955)"
       width="100%"
       height="100%" />
    <use
       x="0"
       y="0"
       xlink:href="#use5909"
       id="use7531"
       transform="translate(539.99935,0.00825955)"
       width="100%"
       height="100%" />
    <use
       x="0"
       y="0"
       xlink:href="#use7411"
       id="use7533"
       transform="translate(540,0)"
       width="100%"
       height="100%" />
    <use
       x="0"
       y="0"
       xlink:href="#use7413"
       id="use7535"
       transform="translate(540,0)"
       width="100%"
       height="100%" />
    <use
       x="0"
       y="0"
       xlink:href="#use7415"
       id="use7537"
       transform="translate(540,0)"
       width="100%"
       height="100%" />
    <use
       x="0"
       y="0"
       xlink:href="#use7417"
       id="use7539"
       transform="translate(540,0)"
       width="100%"
       height="100%" />
    <use
       x="0"
       y="0"
       xlink:href="#use7419"
       id="use7541"
       transform="translate(540,0)"
       width="100%"
       height="100%" />
    <use
       x="0"
       y="0"
       xlink:href="#use7421"
       id="use7543"
       transform="translate(540,0)"
       width="100%"
       height="100%" />
    <use
       x="0"
       y="0"
       xlink:href="#use7423"
       id="use7545"
       transform="translate(540,0)"
       width="100%"
       height="100%" />
    <use
       x="0"
       y="0"
       xlink:href="#use7425"
       id="use7547"
       transform="translate(540,0)"
       width="100%"
       height="100%" />
    <use
       x="0"
       y="0"
       xlink:href="#use7427"
       id="use7549"
       transform="translate(540,0)"
       width="100%"
       height="100%" />
    <use
       x="0"
       y="0"
       xlink:href="#use7429"
       id="use7551"
       transform="translate(540,0)"
       width="100%"
       height="100%" />
    <use
       x="0"
       y="0"
       xlink:href="#use7431"
       id="use7553"
       transform="translate(540,0)"
       width="100%"
       height="100%" />
    <use
       x="0"
       y="0"
       xlink:href="#use7433"
       id="use7555"
       transform="translate(540,0)"
       width="100%"
       height="100%" />
    <use
       x="0"
       y="0"
       xlink:href="#use7435"
       id="use7557"
       transform="translate(540,0)"
       width="100%"
       height="100%" />
    <use
       x="0"
       y="0"
       xlink:href="#use7437"
       id="use7559"
       transform="translate(540,0)"
       width="100%"
       height="100%" />
    <use
       x="0"
       y="0"
       xlink:href="#use7439"
       id="use7561"
       transform="translate(540,0)"
       width="100%"
       height="100%" />
    <use
       x="0"
       y="0"
       xlink:href="#use7441"
       id="use7563"
       transform="translate(540,0)"
       width="100%"
       height="100%" />
    <use
       x="0"
       y="0"
       xlink:href="#use7443"
       id="use7565"
       transform="translate(540,0)"
       width="100%"
       height="100%" />
    <use
       x="0"
       y="0"
       xlink:href="#use7445"
       id="use7567"
       transform="translate(540,0)"
       width="100%"
       height="100%" />
    <use
       x="0"
       y="0"
       xlink:href="#use7447"
       id="use7569"
       transform="translate(540,0)"
       width="100%"
       height="100%" />
    <use
       x="0"
       y="0"
       xlink:href="#use7449"
       id="use7571"
       transform="translate(540,0)"
       width="100%"
       height="100%" />
    <use
       x="0"
       y="0"
       xlink:href="#use7451"
       id="use7573"
       transform="translate(540,0)"
       width="100%"
       height="100%" />
    <use
       x="0"
       y="0"
       xlink:href="#use7453"
       id="use7575"
       transform="translate(540,0)"
       width="100%"
       height="100%" />
    <use
       x="0"
       y="0"
       xlink:href="#use7455"
       id="use7577"
       transform="translate(540,0)"
       width="100%"
       height="100%" />
    <use
       x="0"
       y="0"
       xlink:href="#use7457"
       id="use7579"
       transform="translate(540,0)"
       width="100%"
       height="100%" />
    <use
       x="0"
       y="0"
       xlink:href="#use7459"
       id="use7581"
       transform="translate(540,0)"
       width="100%"
       height="100%" />
    <use
       x="0"
       y="0"
       xlink:href="#use7461"
       id="use7583"
       transform="translate(540,0)"
       width="100%"
       height="100%" />
    <use
       x="0"
       y="0"
       xlink:href="#use7463"
       id="use7585"
       transform="translate(540,0)"
       width="100%"
       height="100%" />
    <use
       x="0"
       y="0"
       xlink:href="#use7465"
       id="use7587"
       transform="translate(540,0)"
       width="100%"
       height="100%" />
    <use
       x="0"
       y="0"
       xlink:href="#use7467"
       id="use7589"
       transform="translate(540,0)"
       width="100%"
       height="100%" />
    <use
       x="0"
       y="0"
       xlink:href="#use7469"
       id="use7591"
       transform="translate(540,0)"
       width="100%"
       height="100%" />
    <use
       x="0"
       y="0"
       xlink:href="#use7471"
       id="use7593"
       transform="translate(540,0)"
       width="100%"
       height="100%" />
    <use
       x="0"
       y="0"
       xlink:href="#use7473"
       id="use7595"
       transform="translate(540,0)"
       width="100%"
       height="100%" />
    <use
       x="0"
       y="0"
       xlink:href="#use7475"
       id="use7597"
       transform="translate(540,0)"
       width="100%"
       height="100%" />
    <use
       x="0"
       y="0"
       xlink:href="#use7477"
       id="use7599"
       transform="translate(540,0)"
       width="100%"
       height="100%" />
    <use
       x="0"
       y="0"
       xlink:href="#use7479"
       id="use7601"
       transform="translate(540,0)"
       width="100%"
       height="100%" />
    <use
       x="0"
       y="0"
       xlink:href="#use7481"
       id="use7603"
       transform="translate(540,0)"
       width="100%"
       height="100%" />
    <use
       x="0"
       y="0"
       xlink:href="#use7483"
       id="use7605"
       transform="translate(540,0)"
       width="100%"
       height="100%" />
    <use
       x="0"
       y="0"
       xlink:href="#use7485"
       id="use7607"
       transform="translate(540,0)"
       width="100%"
       height="100%" />
    <use
       x="0"
       y="0"
       xlink:href="#use7487"
       id="use7609"
       transform="translate(540,0)"
       width="100%"
       height="100%" />
    <use
       x="0"
       y="0"
       xlink:href="#use7489"
       id="use7611"
       transform="translate(540,0)"
       width="100%"
       height="100%" />
    <use
       x="0"
       y="0"
       xlink:href="#use7491"
       id="use7613"
       transform="translate(540,0)"
       width="100%"
       height="100%" />
    <use
       x="0"
       y="0"
       xlink:href="#use7493"
       id="use7615"
       transform="translate(540,0)"
       width="100%"
       height="100%" />
    <use
       x="0"
       y="0"
       xlink:href="#use7495"
       id="use7617"
       transform="translate(540,0)"
       width="100%"
       height="100%" />
    <use
       x="0"
       y="0"
       xlink:href="#use7497"
       id="use7619"
       transform="translate(540,0)"
       width="100%"
       height="100%" />
    <use
       x="0"
       y="0"
       xlink:href="#use7499"
       id="use7621"
       transform="translate(540,0)"
       width="100%"
       height="100%" />
    <use
       x="0"
       y="0"
       xlink:href="#use7501"
       id="use7623"
       transform="translate(540,0)"
       width="100%"
       height="100%" />
    <use
       x="0"
       y="0"
       xlink:href="#use7503"
       id="use7625"
       transform="translate(540,0)"
       width="100%"
       height="100%" />
    <use
       x="0"
       y="0"
       xlink:href="#use7505"
       id="use7627"
       transform="translate(540,0)"
       width="100%"
       height="100%" />
    <use
       x="0"
       y="0"
       xlink:href="#use7507"
       id="use7629"
       transform="translate(540,0)"
       width="100%"
       height="100%" />
    <use
       x="0"
       y="0"
       xlink:href="#use7509"
       id="use7631"
       transform="translate(540,0)"
       width="100%"
       height="100%" />
    <use
       x="0"
       y="0"
       xlink:href="#use7511"
       id="use7633"
       transform="translate(540,0)"
       width="100%"
       height="100%" />
    <use
       x="0"
       y="0"
       xlink:href="#use7513"
       id="use7635"
       transform="translate(540,0)"
       width="100%"
       height="100%" />
    <use
       x="0"
       y="0"
       xlink:href="#use7515"
       id="use7637"
       transform="translate(540,0)"
       width="100%"
       height="100%" />
    <use
       x="0"
       y="0"
       xlink:href="#use7517"
       id="use7639"
       transform="translate(540,0)"
       width="100%"
       height="100%" />
    <use
       x="0"
       y="0"
       xlink:href="#use7519"
       id="use7641"
       transform="translate(540,0)"
       width="100%"
       height="100%" />
    <use
       x="0"
       y="0"
       xlink:href="#use7521"
       id="use7643"
       transform="translate(540,0)"
       width="100%"
       height="100%" />
    <use
       x="0"
       y="0"
       xlink:href="#use7523"
       id="use7645"
       transform="translate(540,0)"
       width="100%"
       height="100%" />
    <use
       x="0"
       y="0"
       xlink:href="#use7525"
       id="use7647"
       transform="translate(540,0)"
       width="100%"
       height="100%" />
    <use
       x="0"
       y="0"
       xlink:href="#use7527"
       id="use7649"
       transform="translate(540,0)"
       width="100%"
       height="100%" />
    <use
       x="0"
       y="0"
       xlink:href="#use7529"
       id="use7651"
       transform="translate(540,0)"
       width="100%"
       height="100%" />
    <use
       x="0"
       y="0"
       xlink:href="#use7531"
       id="use7653"
       transform="translate(540,0)"
       width="100%"
       height="100%" />
    <use
       x="0"
       y="0"
       xlink:href="#use7533"
       id="use7655"
       transform="translate(540,0)"
       width="100%"
       height="100%" />
    <use
       x="0"
       y="0"
       xlink:href="#use7535"
       id="use7657"
       transform="translate(540,0)"
       width="100%"
       height="100%" />
    <use
       x="0"
       y="0"
       xlink:href="#use7537"
       id="use7659"
       transform="translate(540,0)"
       width="100%"
       height="100%" />
    <use
       x="0"
       y="0"
       xlink:href="#use7539"
       id="use7661"
       transform="translate(540,0)"
       width="100%"
       height="100%" />
    <use
       x="0"
       y="0"
       xlink:href="#use7541"
       id="use7663"
       transform="translate(540,0)"
       width="100%"
       height="100%" />
    <use
       x="0"
       y="0"
       xlink:href="#use7543"
       id="use7665"
       transform="translate(540,0)"
       width="100%"
       height="100%" />
    <use
       x="0"
       y="0"
       xlink:href="#use7545"
       id="use7667"
       transform="translate(540,0)"
       width="100%"
       height="100%" />
    <use
       x="0"
       y="0"
       xlink:href="#use7547"
       id="use7669"
       transform="translate(540,0)"
       width="100%"
       height="100%" />
    <use
       x="0"
       y="0"
       xlink:href="#use7549"
       id="use7671"
       transform="translate(540,0)"
       width="100%"
       height="100%" />
    <use
       x="0"
       y="0"
       xlink:href="#use7551"
       id="use7673"
       transform="translate(540,0)"
       width="100%"
       height="100%" />
    <use
       x="0"
       y="0"
       xlink:href="#use7553"
       id="use7675"
       transform="translate(540,0)"
       width="100%"
       height="100%" />
    <use
       x="0"
       y="0"
       xlink:href="#use7555"
       id="use7677"
       transform="translate(540,0)"
       width="100%"
       height="100%" />
    <use
       x="0"
       y="0"
       xlink:href="#use7557"
       id="use7679"
       transform="translate(540,0)"
       width="100%"
       height="100%" />
    <use
       x="0"
       y="0"
       xlink:href="#use7559"
       id="use7681"
       transform="translate(540,0)"
       width="100%"
       height="100%" />
    <use
       x="0"
       y="0"
       xlink:href="#use7561"
       id="use7683"
       transform="translate(540,0)"
       width="100%"
       height="100%" />
    <use
       x="0"
       y="0"
       xlink:href="#use7563"
       id="use7685"
       transform="translate(540,0)"
       width="100%"
       height="100%" />
    <use
       x="0"
       y="0"
       xlink:href="#use7565"
       id="use7687"
       transform="translate(540,0)"
       width="100%"
       height="100%" />
    <use
       x="0"
       y="0"
       xlink:href="#use7567"
       id="use7689"
       transform="translate(540,0)"
       width="100%"
       height="100%" />
    <use
       x="0"
       y="0"
       xlink:href="#use7569"
       id="use7691"
       transform="translate(540,0)"
       width="100%"
       height="100%" />
    <use
       x="0"
       y="0"
       xlink:href="#use7571"
       id="use7693"
       transform="translate(540,0)"
       width="100%"
       height="100%" />
    <use
       x="0"
       y="0"
       xlink:href="#use7573"
       id="use7695"
       transform="translate(540,0)"
       width="100%"
       height="100%" />
    <use
       x="0"
       y="0"
       xlink:href="#use7575"
       id="use7697"
       transform="translate(540,0)"
       width="100%"
       height="100%" />
    <use
       x="0"
       y="0"
       xlink:href="#use7577"
       id="use7699"
       transform="translate(540,0)"
       width="100%"
       height="100%" />
    <use
       x="0"
       y="0"
       xlink:href="#use7579"
       id="use7701"
       transform="translate(540,0)"
       width="100%"
       height="100%" />
    <use
       x="0"
       y="0"
       xlink:href="#use7581"
       id="use7703"
       transform="translate(540,0)"
       width="100%"
       height="100%" />
    <use
       x="0"
       y="0"
       xlink:href="#use7583"
       id="use7705"
       transform="translate(540,0)"
       width="100%"
       height="100%" />
    <use
       x="0"
       y="0"
       xlink:href="#use7585"
       id="use7707"
       transform="translate(540,0)"
       width="100%"
       height="100%" />
    <use
       x="0"
       y="0"
       xlink:href="#use7587"
       id="use7709"
       transform="translate(540,0)"
       width="100%"
       height="100%" />
    <use
       x="0"
       y="0"
       xlink:href="#use7589"
       id="use7711"
       transform="translate(540,0)"
       width="100%"
       height="100%" />
    <use
       x="0"
       y="0"
       xlink:href="#use7591"
       id="use7713"
       transform="translate(540,0)"
       width="100%"
       height="100%" />
    <use
       x="0"
       y="0"
       xlink:href="#use7593"
       id="use7715"
       transform="translate(540,0)"
       width="100%"
       height="100%" />
    <use
       x="0"
       y="0"
       xlink:href="#use7595"
       id="use7717"
       transform="translate(540,0)"
       width="100%"
       height="100%" />
    <use
       x="0"
       y="0"
       xlink:href="#use7597"
       id="use7719"
       transform="translate(540,0)"
       width="100%"
       height="100%" />
    <use
       x="0"
       y="0"
       xlink:href="#use7599"
       id="use7721"
       transform="translate(540,0)"
       width="100%"
       height="100%" />
    <use
       x="0"
       y="0"
       xlink:href="#use7601"
       id="use7723"
       transform="translate(540,0)"
       width="100%"
       height="100%" />
    <use
       x="0"
       y="0"
       xlink:href="#use7603"
       id="use7725"
       transform="translate(540,0)"
       width="100%"
       height="100%" />
    <use
       x="0"
       y="0"
       xlink:href="#use7605"
       id="use7727"
       transform="translate(540,0)"
       width="100%"
       height="100%" />
    <use
       x="0"
       y="0"
       xlink:href="#use7607"
       id="use7729"
       transform="translate(540,0)"
       width="100%"
       height="100%" />
    <use
       x="0"
       y="0"
       xlink:href="#use7609"
       id="use7731"
       transform="translate(540,0)"
       width="100%"
       height="100%" />
    <use
       x="0"
       y="0"
       xlink:href="#use7611"
       id="use7733"
       transform="translate(540,0)"
       width="100%"
       height="100%" />
    <use
       x="0"
       y="0"
       xlink:href="#use7613"
       id="use7735"
       transform="translate(540,0)"
       width="100%"
       height="100%" />
    <use
       x="0"
       y="0"
       xlink:href="#use7615"
       id="use7737"
       transform="translate(540,0)"
       width="100%"
       height="100%" />
    <use
       x="0"
       y="0"
       xlink:href="#use7617"
       id="use7739"
       transform="translate(540,0)"
       width="100%"
       height="100%" />
    <use
       x="0"
       y="0"
       xlink:href="#use7619"
       id="use7741"
       transform="translate(540,0)"
       width="100%"
       height="100%" />
    <use
       x="0"
       y="0"
       xlink:href="#use7621"
       id="use7743"
       transform="translate(540,0)"
       width="100%"
       height="100%" />
    <use
       x="0"
       y="0"
       xlink:href="#use7623"
       id="use7745"
       transform="translate(540,0)"
       width="100%"
       height="100%" />
    <use
       x="0"
       y="0"
       xlink:href="#use7625"
       id="use7747"
       transform="translate(540,0)"
       width="100%"
       height="100%" />
    <use
       x="0"
       y="0"
       xlink:href="#use7627"
       id="use7749"
       transform="translate(540,0)"
       width="100%"
       height="100%" />
    <use
       x="0"
       y="0"
       xlink:href="#use7629"
       id="use7751"
       transform="translate(540,0)"
       width="100%"
       height="100%" />
    <use
       x="0"
       y="0"
       xlink:href="#use7631"
       id="use7753"
       transform="translate(540,0)"
       width="100%"
       height="100%" />
    <use
       x="0"
       y="0"
       xlink:href="#use7633"
       id="use7755"
       transform="translate(540,0)"
       width="100%"
       height="100%" />
    <use
       x="0"
       y="0"
       xlink:href="#use7635"
       id="use7757"
       transform="translate(540,0)"
       width="100%"
       height="100%" />
    <use
       x="0"
       y="0"
       xlink:href="#use7637"
       id="use7759"
       transform="translate(540,0)"
       width="100%"
       height="100%" />
    <use
       x="0"
       y="0"
       xlink:href="#use7639"
       id="use7761"
       transform="translate(540,0)"
       width="100%"
       height="100%" />
    <use
       x="0"
       y="0"
       xlink:href="#use7641"
       id="use7763"
       transform="translate(540,0)"
       width="100%"
       height="100%" />
    <use
       x="0"
       y="0"
       xlink:href="#use7643"
       id="use7765"
       transform="translate(540,0)"
       width="100%"
       height="100%" />
    <use
       x="0"
       y="0"
       xlink:href="#use7645"
       id="use7767"
       transform="translate(540,0)"
       width="100%"
       height="100%" />
    <use
       x="0"
       y="0"
       xlink:href="#use7647"
       id="use7769"
       transform="translate(540,0)"
       width="100%"
       height="100%" />
    <use
       x="0"
       y="0"
       xlink:href="#use7649"
       id="use7771"
       transform="translate(540,0)"
       width="100%"
       height="100%" />
    <use
       x="0"
       y="0"
       xlink:href="#use7651"
       id="use7773"
       transform="translate(540,0)"
       width="100%"
       height="100%" />
    <use
       x="0"
       y="0"
       xlink:href="#use7653"
       id="use7775"
       transform="translate(540,0)"
       width="100%"
       height="100%" />
  </g>
</svg>
